<?xml version="1.0" encoding="UTF-8"?>
<svg width="288px" height="70px" viewBox="0 0 288 70" version="1.1" xmlns="http://www.w3.org/2000/svg" xmlns:xlink="http://www.w3.org/1999/xlink">
    <!-- Generator: Sketch 46.2 (44496) - http://www.bohemiancoding.com/sketch -->
    <title>Logo Copy</title>
    <desc>Created with Sketch.</desc>
    <defs></defs>
    <g id="Symbols" stroke="none" stroke-width="1" fill="none" fill-rule="evenodd">
        <g id="Desktop-Menu" transform="translate(-32.000000, -55.000000)" fill="#231F20">
            <g id="Logo-Copy" transform="translate(32.000000, 55.000000)">
                <path d="M64.7952236,19.5205714 L64.7952236,32.8191429 L61.1620808,32.8191429 L61.1620808,19.502 L58.0371793,19.502 L58.0371793,16.1391429 L67.8261645,16.1391429 L67.8261645,19.5205714 L64.7952236,19.5205714 Z M81.3435345,25.2442857 L82.8312438,16.14 L86.6152931,16.14 L83.6028596,30.95 C83.3765,32.0828571 82.5479384,32.9514286 81.3819729,32.99 C80.1391305,33.0285714 79.1966773,32.0257143 78.9717414,30.7985714 L77.6733768,23.8657143 L76.2796281,30.7428571 C76.0347611,31.8942857 75.4709975,32.9514286 74.3021847,33.1028571 C73.0422586,33.2728571 71.96883,32.2714286 71.7239631,31.0257143 L68.8439286,16.14 L72.6279778,16.14 L74.0587414,25.0942857 L75.4880813,18.1228571 C75.7144409,16.99 76.4874803,16.0457143 77.6349384,16.0271429 C78.8393424,16.0071429 79.6679039,17.0085714 79.8942635,18.18 L81.3435345,25.2442857 Z M103.021524,24.451 C103.021524,29.1167143 99.1805291,32.9524286 94.5309034,32.971 C89.8257557,32.9895714 85.8722926,29.041 85.9648296,24.3181429 C86.0402828,19.7281429 89.7503025,16.0638571 94.3045438,15.9695714 C99.0125389,15.8938571 103.003017,19.7281429 103.021524,24.451 Z M121.586713,32.8384286 L121.586713,23.9412857 L119.347319,31.2898571 C119.065437,32.2712857 118.404866,33.0655714 117.369876,33.0655714 C116.297871,33.0655714 115.695669,32.1398571 115.375349,31.1198571 L112.926679,23.3184286 L112.926679,32.8384286 L109.501388,32.8384286 L109.501388,18.747 C109.501388,17.4441429 110.234566,16.2912857 111.515846,16.027 C112.777196,15.7612857 114.057053,16.3855714 114.432896,17.6127143 L117.314354,26.6984286 L120.080497,17.6512857 C120.439255,16.4984286 121.454314,15.837 122.660142,15.8941429 C124.12792,15.9498571 125.125896,17.3112857 125.125896,18.7841429 L125.125896,32.8384286 L121.586713,32.8384286 Z M129.249769,16.1394286 L134.652503,16.1394286 L134.652503,19.5408571 L129.701065,19.5408571 L129.701065,22.3922857 L134.389129,22.3922857 L134.389129,25.7551429 L129.701065,25.7551429 L129.701065,29.438 L134.633996,29.438 L134.633996,32.8194286 L129.249769,32.8194286 C128.4027,32.8194286 127.443163,32.6494286 126.784015,31.838 C126.33272,31.2708571 126.161882,30.7794286 126.161882,30.0422857 L126.161882,19.0108571 C126.161882,18.218 126.388242,17.688 126.896483,17.1037143 C127.555631,16.3665714 128.270301,16.1394286 129.249769,16.1394286 Z M144.235771,25.6792857 L144.235771,16.1392857 L147.793461,16.1392857 L147.793461,30.8735714 C147.793461,32.0264286 146.833924,32.8764286 145.686466,32.9707143 C144.574599,33.0464286 143.80156,32.3278571 143.331757,31.3278571 L139.057973,22.4292857 L139.057973,32.8378571 L135.632683,32.8378571 L135.632683,18.7278571 C135.632683,17.4807143 136.103909,16.3278571 137.289806,15.9507143 C138.606678,15.5164286 139.84952,16.4221429 140.433215,17.6878571 L144.235771,25.6792857 Z M168.308333,32.8195714 L164.373377,32.8195714 L163.489293,29.6267143 L159.027589,29.6267143 L158.27448,32.8195714 L154.340948,32.8195714 L158.688761,17.821 C159.027589,16.6124286 159.950111,15.7995714 161.192953,15.7624286 C162.491318,15.7238571 163.470786,16.5552857 163.846628,17.7824286 L168.308333,32.8195714 Z M177.83437,25.6792857 L177.83437,16.1392857 L181.393484,16.1392857 L181.393484,30.8735714 C181.393484,32.0264286 180.432523,32.8764286 179.283641,32.9707143 C178.174622,33.0464286 177.401582,32.3278571 176.931779,31.3278571 L172.657996,22.4292857 L172.657996,32.8378571 L169.231282,32.8378571 L169.231282,18.7278571 C169.231282,17.4807143 169.702508,16.3278571 170.888405,15.9507143 C172.2067,15.5164286 173.448119,16.4221429 174.031814,17.6878571 L177.83437,25.6792857 Z M182.466485,19.351 C182.466485,18.4252857 182.578953,17.8024286 183.182579,17.1024286 C183.860234,16.3281429 184.650357,16.1395714 185.66684,16.1395714 L186.985135,16.1395714 C191.539377,16.1581429 195.323426,19.7281429 195.398879,24.301 C195.49284,28.9281429 191.728722,32.8952857 187.136042,32.8767143 L185.628401,32.8767143 C184.593411,32.8767143 183.784781,32.7638571 183.125633,31.9695714 C182.598884,31.3652857 182.466485,30.7795714 182.466485,29.9681429 L182.466485,19.351 Z M215.933255,32.8195714 L211.999723,32.8195714 L211.114215,29.6267143 L206.652511,29.6267143 L205.899402,32.8195714 L201.96587,32.8195714 L206.313683,17.821 C206.652511,16.6124286 207.575033,15.7995714 208.816452,15.7624286 C210.11624,15.7238571 211.095708,16.5552857 211.47155,17.7824286 L215.933255,32.8195714 Z M229.191379,19.5205714 L229.191379,32.8191429 L225.558236,32.8191429 L225.558236,19.502 L222.431911,19.502 L222.431911,16.1391429 L232.22232,16.1391429 L232.22232,19.5205714 L229.191379,19.5205714 Z M236.834788,25.1694286 L236.834788,32.838 L233.334044,32.838 L233.334044,18.9551429 C233.334044,18.2365714 233.445089,17.7451429 233.860793,17.1965714 C234.501433,16.328 235.36701,16.1394286 236.439015,16.1394286 L238.341005,16.1394286 C241.164094,16.1594286 243.894645,18.1608571 243.819192,20.9951429 C243.762246,23.0537143 242.614788,24.4894286 240.675783,25.188 L244.986581,32.8765714 L240.882212,32.8765714 L236.834788,25.1694286 Z M258.221215,16.1394286 L258.221215,27.0765714 C258.221215,30.3822857 255.435141,33.0465714 252.140826,33.0651429 C248.808072,33.0651429 246.003491,30.3637143 246.003491,27.0394286 L246.003491,16.1394286 L249.524166,16.1394286 L249.524166,27.1908571 C249.524166,28.6065714 250.785516,29.7408571 252.177841,29.6837143 C253.496136,29.6465714 254.663526,28.6837143 254.663526,27.3608571 L254.663526,16.1394286 L258.221215,16.1394286 Z M269.630309,32.876 L268.161107,32.876 C263.531412,32.896 259.502496,29.4388571 259.333082,24.7902857 C259.12523,19.9174286 263.191161,16.1588571 268.293506,16.1388571 L269.59187,16.1388571 L269.59187,19.5774286 L268.481427,19.5017143 C265.639831,19.3317143 263.041678,21.3345714 262.909279,24.186 C262.758373,27.1517143 265.470417,29.4945714 268.425905,29.476 L269.630309,29.476 L269.630309,32.876 Z M274.374749,24.8855714 L274.374749,32.8755714 L270.81706,32.8755714 L270.798552,16.1398571 L274.337734,16.1398571 L274.374749,23.5641429 L279.024375,16.1398571 L283.261143,16.1398571 L277.95237,24.0541429 L283.730946,32.8198571 L279.269242,32.8198571 L274.374749,24.8855714 Z M283.471558,30.7587143 C283.471558,29.5172857 284.475228,28.6015714 285.662548,28.6015714 C286.837056,28.6015714 287.840726,29.5172857 287.840726,30.7587143 C287.840726,32.013 286.837056,32.9287143 285.662548,32.9287143 C284.475228,32.9287143 283.471558,32.013 283.471558,30.7587143 Z M91.1413463,38.1875714 L91.3648586,38.3004286 C91.8104596,38.4861429 91.9770261,38.8961429 91.9770261,39.3804286 C91.9585187,40.0332857 91.383366,40.5175714 90.7512675,40.4804286 C90.0821542,40.4432857 89.6749916,39.8832857 89.7105828,39.3247143 C89.7105828,38.9147143 89.8401345,38.6918571 89.9896172,38.319 L90.9562724,36.0261429 L91.6054547,36.0261429 L91.1413463,38.1875714 Z M93.7608537,38.1875714 L93.9829424,38.3004286 C94.4285433,38.4861429 94.5951099,38.8961429 94.5951099,39.3804286 C94.5780261,40.0332857 94.0014498,40.5175714 93.3693512,40.4804286 C92.7016616,40.4432857 92.3115828,39.8832857 92.3300901,39.3247143 C92.3300901,38.9147143 92.4596419,38.6918571 92.6091246,38.319 L93.5757798,36.0261429 L94.2249621,36.0261429 L93.7608537,38.1875714 Z M97.4468138,40.238 L97.4468138,53.1737143 L95.6459025,53.1737143 L95.6459025,37.9637143 C95.6459025,37.1622857 95.9249369,36.2865714 96.7036709,36.1751429 C97.3357695,36.0822857 97.9863754,36.3237143 98.1899567,36.9022857 L102.704336,49.9494286 L107.289898,36.9765714 C107.51341,36.3608571 108.201031,36.1008571 108.833129,36.2308571 C109.463804,36.3794286 109.799784,36.958 109.799784,37.5908571 L109.799784,53.1922857 L107.997449,53.1922857 L107.997449,40.4051429 L103.874572,52.2222857 C103.706582,52.7251429 103.428971,53.1537143 102.88941,53.2294286 C102.275819,53.3222857 101.813134,53.0422857 101.571114,52.2965714 L97.4468138,40.238 Z M116.680832,42.0645714 C119.782955,42.0645714 122.327009,44.5988571 122.364024,47.6931429 C122.402462,50.8245714 119.838477,53.4702857 116.717846,53.4702857 C113.578708,53.4702857 110.979132,50.786 111.034654,47.6374286 C111.108684,44.5617143 113.615723,42.0645714 116.680832,42.0645714 Z M122.022776,42.3628571 L123.862126,42.3628571 L126.443195,50.7128571 L128.968741,42.3628571 L130.84653,42.3628571 L127.594924,52.5585714 C127.426933,53.0614286 127.075293,53.4342857 126.554239,53.49 C125.923564,53.5457143 125.440948,53.08 125.254451,52.4642857 L122.022776,42.3628571 Z M141.684457,49.4268571 C140.904299,51.9982857 138.730393,53.4897143 136.056787,53.4525714 C132.936156,53.3968571 130.595683,50.7682857 130.632698,47.7125714 C130.68822,44.6368571 133.252205,42.1397143 136.31589,42.1768571 C139.140402,42.214 141.516467,44.3011429 141.795501,47.0411429 C141.832516,47.5068571 141.795501,47.8611429 141.497959,48.2525714 C141.27587,48.5125714 140.700718,48.7182857 140.142649,48.7182857 L132.546077,48.7182857 C133.011609,50.5082857 134.533486,51.6811429 136.280299,51.644 C137.785092,51.6254286 139.121895,50.8797143 139.808092,49.4268571 L141.684457,49.4268571 Z M144.76309,53.1915714 L143.0177,53.1915714 L143.0177,45.7915714 C143.0177,44.6001429 143.295311,43.593 144.093976,42.9215714 C144.633538,42.4744286 145.412272,42.2515714 146.304898,42.2515714 L146.843035,42.2515714 L146.843035,44.0401429 L146.378927,44.0401429 C145.933326,44.0401429 145.561755,44.133 145.264213,44.3387143 C144.874134,44.6187143 144.76309,45.0101429 144.76309,45.4944286 L144.76309,53.1915714 Z M153.387818,44.5808571 C153.36931,44.5622857 151.865941,43.7794286 150.712788,43.8165714 C149.599498,43.8351429 148.706872,44.2451429 148.726803,45.1951429 C148.726803,45.9594286 149.358901,46.408 150.100621,46.6308571 L151.512877,47.0408571 C152.831172,47.4322857 153.740882,48.6994286 153.703867,49.9108571 C153.666852,51.738 152.663182,53.4522857 149.821586,53.5451429 C148.782325,53.5822857 147.351562,53.0237143 147.203502,52.9494286 L147.203502,51.048 C147.333054,51.1594286 148.521798,51.6822857 149.784571,51.7008571 C151.067276,51.7194286 151.995493,51.0294286 151.901532,49.9865714 C151.84601,49.3337143 151.400409,48.9051429 150.620251,48.6622857 L149.059936,48.178 C147.723133,47.7494286 146.905961,46.5937143 146.97999,45.1951429 C147.091034,42.9965714 148.799409,42.0837143 150.657266,42.0837143 C152.199074,42.1022857 153.258266,42.6237143 153.387818,42.698 L153.387818,44.5808571 Z M172.200152,48.681 L174.708615,36.4167143 L176.696024,36.4167143 L173.314866,52.2967143 C173.202398,52.8752857 172.795235,53.3224286 172.218659,53.3595714 C171.697605,53.3967143 171.177974,52.8567143 171.06693,52.2781429 L168.763472,41.0581429 L166.387408,52.371 C166.27494,52.931 165.829339,53.3224286 165.254186,53.3595714 C164.733132,53.3967143 164.232009,52.9124286 164.102457,52.3338571 L160.758314,36.4167143 L162.708708,36.4167143 L165.254186,48.6438571 L167.631674,37.2567143 C167.761226,36.6595714 168.151304,36.1195714 168.781979,36.1752857 C169.452516,36.231 169.748634,36.6781429 169.915201,37.4981429 L172.200152,48.681 Z M186.455824,46.5194286 L186.455824,53.1737143 L184.74745,53.1737143 L184.74745,46.4637143 C184.74745,45.0465714 183.577213,43.8722857 182.164957,43.8722857 C180.71711,43.8722857 179.565381,44.9165714 179.565381,46.5194286 L179.565381,53.1737143 L177.818568,53.1737143 L177.818568,36.418 L179.565381,36.418 L179.565381,43.0522857 C180.401061,42.3808571 181.144203,42.1208571 182.220479,42.1208571 C184.580883,42.1208571 186.455824,43.8908571 186.455824,46.5194286 Z M193.393248,42.0645714 C196.495371,42.0645714 199.039425,44.5988571 199.07644,47.6931429 C199.114878,50.8245714 196.552317,53.4702857 193.430263,53.4702857 C190.292548,53.4702857 187.691548,50.786 187.74707,47.6374286 C187.8211,44.5617143 190.328139,42.0645714 193.393248,42.0645714 Z M217.109613,47.6747143 C217.109613,44.5804286 219.636583,42.0461429 222.718775,42.0461429 C225.913435,42.0461429 228.38346,44.3947143 228.38346,47.879 L228.38346,53.1732857 L226.638071,53.1732857 L226.638071,51.6447143 C225.504849,52.819 224.410066,53.3032857 222.774298,53.3404286 C219.673598,53.4147143 217.091105,50.7861429 217.109613,47.6747143 Z M244.841512,49.4268571 C244.061354,51.9982857 241.887448,53.4897143 239.212418,53.4525714 C236.093211,53.3968571 233.752738,50.7682857 233.789753,47.7125714 C233.845275,44.6368571 236.409261,42.1397143 239.472945,42.1768571 C242.297458,42.214 244.673522,44.3011429 244.952556,47.0411429 C244.990995,47.5068571 244.952556,47.8611429 244.655014,48.2525714 C244.432926,48.5125714 243.856349,48.7182857 243.299704,48.7182857 L235.703133,48.7182857 C236.167241,50.5082857 237.690541,51.6811429 239.437354,51.644 C240.940724,51.6254286 242.27895,50.8797143 242.965147,49.4268571 L244.841512,49.4268571 Z M244.87511,51.112 C244.87511,49.8691429 245.87878,48.9548571 247.0661,48.9548571 C248.240607,48.9548571 249.244277,49.8691429 249.244277,51.112 C249.244277,52.3662857 248.240607,53.282 247.0661,53.282 C245.87878,53.282 244.87511,52.3662857 244.87511,51.112 Z M250.828795,38.3 L250.605282,38.2057143 C250.159681,38.02 249.991691,37.61 249.991691,37.1257143 C249.991691,36.4728571 250.586775,35.97 251.218873,36.0071429 C251.886563,36.0628571 252.276642,36.6042857 252.258134,37.1814286 C252.258134,37.5728571 252.128583,37.7957143 251.980524,38.1685714 L251.013868,40.48 L250.364686,40.48 L250.828795,38.3 Z M253.446878,38.3 L253.22479,38.2057143 C252.777765,38.02 252.611199,37.61 252.611199,37.1257143 C252.629706,36.4728571 253.206282,35.97 253.836957,36.0071429 C254.50607,36.0628571 254.896149,36.6042857 254.877642,37.1814286 C254.877642,37.5728571 254.746667,37.7957143 254.598607,38.1685714 L253.633376,40.48 L252.98277,40.48 L253.446878,38.3 Z M89.466997,24.451 C89.466997,27.2281429 91.7448296,29.5138571 94.5123961,29.5138571 C97.29847,29.5138571 99.5962335,27.1338571 99.537864,24.3381429 C99.4638345,21.5995714 97.2045094,19.3881429 94.4554502,19.4081429 C91.7277458,19.4267143 89.466997,21.6938571 89.466997,24.451 Z M159.93018,26.1895714 L162.623717,26.1895714 L161.305421,21.3724286 L159.93018,26.1895714 Z M186.024175,29.5138571 C188.979663,29.9095714 191.785667,27.4167143 191.785667,24.4324286 C191.765736,21.4667143 188.961155,19.011 186.024175,19.4081429 L186.024175,29.5138571 Z M207.556526,26.1895714 L210.248639,26.1895714 L208.930343,21.3724286 L207.556526,26.1895714 Z M236.853296,24.4708571 C237.061148,23.9222857 237.098163,23.8094286 237.361537,23.4322857 C238.247044,22.2422857 240.110596,23.4694286 240.298517,21.2022857 C240.393901,20.2765714 239.526901,19.4837143 238.585872,19.4837143 L236.853296,19.4837143 L236.853296,24.4708571 Z M285.662548,32.5672857 C286.637745,32.5672857 287.406514,31.8015714 287.406514,30.7587143 C287.406514,29.7344286 286.637745,28.9615714 285.662548,28.9615714 C284.674538,28.9615714 283.904346,29.7344286 283.904346,30.7587143 C283.904346,31.8015714 284.674538,32.5672857 285.662548,32.5672857 Z M116.848822,51.6074286 C118.928767,51.5131429 120.544605,49.7988571 120.544605,47.7302857 C120.544605,45.6431429 118.834807,43.9288571 116.754861,43.8917143 C114.6379,43.8545714 112.835566,45.5688571 112.817058,47.6931429 C112.799974,49.8745714 114.674915,51.7002857 116.848822,51.6074286 Z M132.52757,46.9668571 L140.050112,46.9668571 C139.623018,45.1582857 138.138156,43.9654286 136.280299,43.9654286 C134.422442,43.9654286 132.936156,45.1582857 132.52757,46.9668571 Z M193.561238,51.6074286 C195.641184,51.5131429 197.257021,49.7988571 197.257021,47.7302857 C197.257021,45.6431429 195.548647,43.9288571 193.467277,43.8917143 C191.350317,43.8545714 189.549405,45.5688571 189.530898,47.6931429 C189.510967,49.8745714 191.387332,51.7002857 193.561238,51.6074286 Z M222.849751,51.5518571 C224.929697,51.4947143 226.601056,49.799 226.619564,47.7118571 C226.619564,45.6247143 224.985219,43.929 222.92378,43.8361429 C220.749874,43.7232857 218.837918,45.5318571 218.856426,47.7118571 C218.856426,49.8561429 220.712859,51.6075714 222.849751,51.5518571 Z M235.684625,46.9668571 L243.207167,46.9668571 C242.780073,45.1582857 241.293788,43.9654286 239.437354,43.9654286 C237.579497,43.9654286 236.093211,45.1582857 235.684625,46.9668571 Z M247.0661,52.9205714 C248.041297,52.9205714 248.811489,52.1548571 248.811489,51.112 C248.811489,50.0877143 248.041297,49.3148571 247.0661,49.3148571 C246.07809,49.3148571 245.309322,50.0877143 245.309322,51.112 C245.309322,52.1548571 246.07809,52.9205714 247.0661,52.9205714 Z" id="Combined-Shape"></path>
                <path d="M246.60911,52.3662857 L246.233267,52.3662857 L246.233267,49.8691429 L247.179992,49.8691429 C247.767957,49.8691429 248.058381,50.0877143 248.058381,50.5791429 C248.058381,51.0262857 247.779346,51.2205714 247.413469,51.2662857 L248.121021,52.3662857 L247.698199,52.3662857 L247.043322,51.2834286 L246.60911,51.2834286 L246.60911,52.3662857 Z M247.060405,50.9634286 C247.379302,50.9634286 247.664031,50.9405714 247.664031,50.5562857 C247.664031,50.2477143 247.384997,50.1905714 247.123046,50.1905714 L246.60911,50.1905714 L246.60911,50.9634286 L247.060405,50.9634286 Z" id="Combined-Shape"></path>
                <path d="M285.205558,32.013 L284.828292,32.013 L284.828292,29.5172857 L285.775016,29.5172857 C286.364405,29.5172857 286.654829,29.7344286 286.654829,30.2258571 C286.654829,30.673 286.375795,30.8672857 286.009918,30.913 L286.717469,32.013 L286.294647,32.013 L285.638346,30.9315714 L285.205558,30.9315714 L285.205558,32.013 Z M285.656854,30.6101429 C285.97575,30.6101429 286.260479,30.5872857 286.260479,30.203 C286.260479,29.8944286 285.981445,29.8372857 285.71807,29.8372857 L285.205558,29.8372857 L285.205558,30.6101429 L285.656854,30.6101429 Z" id="Combined-Shape"></path>
                <path d="M231.421092,53.1915714 L229.674279,53.1915714 L229.674279,45.7915714 C229.674279,44.6001429 229.953314,43.593 230.751979,42.9215714 C231.29154,42.4744286 232.070274,42.2515714 232.9629,42.2515714 L233.501038,42.2515714 L233.501038,44.0401429 L233.03693,44.0401429 C232.591329,44.0401429 232.219757,44.133 231.922215,44.3387143 C231.532136,44.6187143 231.421092,45.0101429 231.421092,45.4944286 L231.421092,53.1915714" id="Fill-56"></path>
                <path d="M215.41035,38.2261429 C211.528069,38.1318571 208.091389,40.3118571 208.054374,44.8604286 C208.01736,49.1475714 211.696059,51.439 215.112808,51.2718571 L215.855951,51.2532857 L215.855951,53.1361429 C211.639113,53.8061429 206.048458,50.6004286 206.159502,44.8232857 C206.308985,37.629 212.975916,36.2118571 215.225276,36.4547143 L215.855951,36.529 L215.855951,38.2447143 L215.41035,38.2261429" id="Fill-52"></path>
                <path d="M34.7753842,32.5834286 C35.9385025,33.4305714 37.2852709,34.3234286 38.2206059,35.5134286 C38.745931,36.362 38.790064,37.572 38.4711675,38.5148571 C38.0625813,38.7177143 37.7194828,39.2677143 37.2411379,39.3605714 C36.8510591,40.002 35.9385025,40.002 35.7107192,40.8034286 C35.7320739,41.0334286 35.8459655,41.3062857 36.1221527,41.3991429 C37.4432956,41.122 38.2419606,39.8191429 39.681266,39.7048571 C39.9531823,39.7962857 40.2293695,39.7048571 40.435798,39.5905714 C40.5496897,39.452 40.6379557,39.0862857 40.8671626,39.132 C41.5761379,39.4962857 42.4886946,39.2462857 43.2403793,39.5191429 C44.0390443,39.7491429 44.951601,39.8634286 45.4783498,40.642 C46.3681281,41.3291429 46.8906059,42.452 46.6628227,43.6191429 C46.6628227,45.4291429 46.8251182,47.3305714 46.1147192,49.092 C45.0882709,50.4877143 45.4783498,52.3191429 44.4732562,53.7634286 C44.2896059,53.9934286 44.2896059,54.3805714 43.972133,54.5434286 C42.0331281,54.702 40.0229409,54.5162857 38.2206059,55.0677143 C36.0523941,55.4591429 33.8628276,55.252 31.7173941,55.1148571 C32.6513054,53.1205714 33.5425074,50.9934286 34.3411724,48.862 C34.5689557,47.6491429 35.0729261,46.5734286 35.2095961,45.3148571 C35.4373793,43.6877143 35.3676207,42.0634286 35.6181823,40.4348571 C35.5299163,37.7348571 35.0487241,35.102 32.7666207,33.4305714 C32.3352562,32.812 31.5109655,33.0405714 31.079601,32.4691429 C31.079601,32.3977143 31.1949163,32.3977143 31.2390493,32.3548571 C32.4491478,32.4477143 33.6350443,32.2391429 34.7753842,32.5834286 L34.7753842,32.5834286 Z M32.4235222,42.8648571 C32.1957389,43.2534286 32.5160591,43.782 32.3352562,44.2391429 C31.5109655,45.7262857 31.6504828,47.6262857 30.7607044,49.1362857 C30.7123005,49.2062857 30.5984089,49.3205714 30.4845172,49.3205714 C31.0098424,47.0762857 31.9451773,44.9477143 32.3096305,42.6805714 C32.4235222,42.6577143 32.4235222,42.7948571 32.4235222,42.8648571 L32.4235222,42.8648571 Z M22.7954089,0.0462857143 C27.724069,0.642 32.676931,-0.206571429 37.6283695,0.434857143 C39.3837241,0.800571429 41.3227291,0.364857143 42.9670394,1.00771429 C45.0654926,1.09914286 46.7325813,2.49628571 48.443803,3.52628571 C49.1954877,4.23485714 50.221936,4.83057143 50.4753448,5.90914286 C50.976468,7.05342857 51.2740099,8.38057143 51.6612414,9.61628571 C51.911803,10.9691429 51.911803,12.2977143 52.1168079,13.672 C52.1395862,15.2962857 52.3460148,17.0362857 51.8448916,18.5462857 C51.5914828,19.5105714 51.4548128,20.4934286 51.2967882,21.4548571 C49.9058867,27.3162857 47.8743448,32.9491429 46.4578177,38.7877143 C46.7767143,39.5191429 47.7818079,40.092 47.7818079,41.1005714 C48.7384975,41.902 48.3968227,43.182 48.3740443,44.2834286 C47.9882365,45.1991429 48.3968227,46.3662857 47.9184778,47.2377143 C46.8906059,49.7077143 46.6186897,52.4562857 45.1352512,54.7934286 C45.3160542,55.5262857 46.1616995,55.8248571 46.3909064,56.442 C46.2286108,57.862 44.9302463,58.8934286 43.6518128,59.2362857 C43.1037094,59.3948571 42.5328276,59.4877143 41.9633695,59.6034286 C41.9405911,62.1648571 42.9456847,65.0977143 41.5761379,67.5934286 C40.1596108,68.2548571 38.2903645,68.5091429 36.8510591,67.7977143 C36.5791429,67.5677143 36.3029557,67.2948571 36.0993744,66.9962857 C35.8715911,64.8691429 37.5586108,62.9662857 36.6446305,60.8134286 C34.455064,60.9062857 32.2213645,60.9548571 29.9606158,61.2505714 C29.1405961,61.4562857 28.3632857,61.6848571 27.5660443,61.9362857 C26.6050837,62.052 25.6483941,61.9362857 24.7358374,62.1648571 C23.1598621,62.4877143 21.5411773,62.7605714 19.965202,63.1734286 C17.7542808,63.0362857 15.449399,63.6091429 13.1900739,63.3577143 C12.5280788,63.7234286 11.6838571,63.2448571 11.114399,63.8162857 C11.0659951,65.5548571 10.9521034,67.2034286 10.8168571,68.942 C10.6801872,69.2862857 10.6104286,69.8148571 10.1320837,69.9277143 C8.83229557,70.042 7.27909852,70.042 6.024867,69.7691429 C5.77430542,69.5148571 5.59065517,69.172 5.56787685,68.8048571 C5.45398522,66.9962857 6.13875862,65.142 5.7045468,63.3577143 C4.42753695,63.1291429 3.08076847,62.9662857 1.98740887,62.3277143 C1.66708867,61.892 1.30263547,61.3648571 0.959536946,60.9277143 C0.84564532,60.5848571 0.84564532,60.1277143 0.889778325,59.7834286 C1.75820197,59.3505714 1.75820197,58.2505714 2.62377833,57.8377143 C2.9654532,57.7705714 3.42244335,57.7005714 3.6060936,57.4277143 C2.9654532,57.1505714 3.12774877,56.3748571 2.62377833,55.9834286 C2.53124138,54.222 1.27700985,53.1205714 0.617862069,51.5877143 C0.274763547,50.6034286 0.320320197,49.412 0,48.3605714 C0.227783251,46.6177143 0.503970443,45.1062857 0.959536946,43.4591429 C0.798665025,42.9791429 0.503970443,42.4962857 0.684773399,41.9491429 C0.478344828,40.642 1.39090148,39.6334286 1.34676847,38.2862857 C1.41652709,36.8191429 1.59733005,35.3534286 1.4606601,33.9091429 C1.53041872,33.0634286 1.16311823,32.2848571 0.959536946,31.4834286 C1.18874384,23.4691429 0.320320197,15.4334286 0.84564532,7.39771429 C0.959536946,6.36628571 1.43788177,5.38057143 1.71122167,4.39771429 C2.10130049,4.00771429 2.16821182,3.32057143 2.78465025,3.20628571 C4.06308374,2.58771429 5.40985222,1.67342857 6.91464532,1.35057143 C8.07776355,1.25914286 9.06007882,0.756285714 10.1762167,0.549142857 C12.2547389,0.227714286 14.3090591,0.113428571 16.4060887,0.0905714286 C18.5301675,0.206285714 20.6727537,-0.115142857 22.7954089,0.0462857143 L22.7954089,0.0462857143 Z M36.5093842,19.4391429 C36.9208177,20.1262857 37.0574877,21.1577143 36.5791429,21.8448571 C36.2146897,22.2791429 35.8246108,22.6905714 35.4373793,23.082 C34.9818128,23.1248571 34.5689557,23.3105714 34.1133892,23.2877143 C34.455064,22.782 35.2765074,22.6005714 35.2765074,21.7734286 C35.2537291,21.5705714 35.0729261,21.3634286 34.8892759,21.272 C34.2272808,21.1805714 34.3183941,22.2791429 33.5894877,22.0948571 C33.0413842,21.9805714 33.3617044,21.1134286 32.7922463,20.8362857 C32.5630394,20.7905714 32.4491478,21.0205714 32.3793892,21.1577143 C32.4235222,21.8448571 32.4235222,22.6234286 32.9274926,23.1734286 C32.8363793,23.3105714 32.6071724,23.2405714 32.4491478,23.1962857 C31.878266,23.0334286 31.8312857,22.3734286 31.6946158,21.8891429 C31.5109655,20.7691429 32.2213645,19.8748571 32.9047143,19.0962857 C33.5425074,18.9105714 34.2272808,18.6162857 34.9334089,18.752 C35.5968276,18.4791429 36.0993744,19.0048571 36.5093842,19.4391429 L36.5093842,19.4391429 Z M19.6235271,19.3962857 C20.1274975,19.692 20.1274975,20.2634286 20.1716305,20.7434286 C20.0577389,21.1805714 19.6705074,21.5005714 19.6932857,21.9362857 C19.0312906,22.4377143 18.3678719,23.1248571 17.7315025,23.6534286 C17.3414236,23.8605714 16.8630788,23.9962857 16.4516453,23.8605714 C16.7264089,23.2405714 17.5037192,22.8748571 17.5478522,22.1648571 C17.3884039,22.0505714 17.364202,21.8448571 17.1349951,21.8891429 C16.9769704,21.9362857 16.8189458,22.0034286 16.7264089,22.142 L16.7491872,22.1648571 C16.428867,22.2791429 16.2224384,22.7605714 15.8366305,22.6005714 C15.586069,22.4862857 15.6529803,22.2091429 15.4024187,22.0505714 C15.2885271,22.1648571 15.1290788,22.142 15.0593202,22.3248571 C14.9682069,22.8962857 15.4237734,23.4248571 15.493532,23.8348571 C14.8543153,23.7205714 14.1026305,24.0648571 13.6242857,23.4691429 C13.3267438,23.082 13.4619901,22.5762857 13.4178571,22.1648571 C13.5103941,21.342 13.647064,20.5405714 13.9887389,19.8062857 C14.2165222,19.692 14.3745468,19.3705714 14.6735123,19.4848571 C14.7874039,19.6248571 15.0151872,19.9205714 15.2657488,19.8534286 C15.7227389,19.2805714 16.4986256,19.5548571 17.0211034,19.142 C17.9336601,19.2805714 18.8248621,19.0262857 19.6235271,19.3962857 L19.6235271,19.3962857 Z M43.6304581,14.0362857 C44.0860246,14.7905714 44.152936,15.7534286 44.5430148,16.622 C44.8846897,18.2962857 44.3807192,19.9905714 44.2013399,21.6591429 C44.108803,22.7377143 43.7671281,23.8605714 43.7671281,24.9577143 C43.3542709,25.2091429 43.173468,25.6448571 42.9456847,26.0348571 C42.2836897,26.3534286 41.8494778,27.1105714 41.0949458,27.2248571 C40.9810542,26.882 40.6379557,26.5148571 40.2521478,26.4677143 C39.725399,26.402 39.1801429,26.3534286 38.7687094,26.0348571 C37.9928227,26.1948571 37.2155123,25.922 36.4652512,25.8062857 C38.1536946,25.0048571 39.8649163,24.112 41.5761379,23.2405714 C41.7355862,23.1248571 41.8936108,22.8962857 41.7797192,22.6677143 C41.6658276,22.4377143 41.4366207,22.3948571 41.1860591,22.3948571 C40.8671626,22.5762857 40.5938227,22.9191429 40.2521478,23.082 C38.9523596,23.9491429 37.4432956,24.3405714 36.0751724,25.0048571 C35.7804778,25.072 35.4815123,25.1634286 35.1626158,25.142 C35.0031675,25.0277143 35.0487241,24.7762857 35.0957044,24.6348571 C35.2765074,24.2934286 35.7320739,24.3405714 36.0523941,24.1562857 C36.9208177,23.5162857 37.3778079,22.4605714 37.7636158,21.4548571 C37.9002857,21.1134286 38.083936,20.722 37.8775074,20.3105714 C37.7194828,19.8534286 37.3294039,19.4391429 37.2411379,18.9377143 C36.6232759,17.8148571 35.2309507,17.9062857 34.2272808,17.4234286 C33.5197291,17.4234286 32.8363793,17.5634286 32.2654975,17.9734286 C31.6248571,19.2105714 30.3264926,20.3562857 30.6453892,21.8662857 C30.8048374,22.6448571 31.3529409,23.3548571 31.7643744,24.0205714 C32.3352562,24.4991429 33.1082956,24.4548571 33.7702906,24.6348571 C34.0464778,24.7062857 33.8628276,25.0048571 33.9069606,25.1634286 C33.8841823,25.2562857 33.7702906,25.372 33.656399,25.372 C33.1780542,25.3934286 32.8363793,25.0948571 32.4932808,24.8434286 C31.0098424,24.522 29.7997438,23.5834286 28.2024138,23.6062857 C28.0216108,23.7205714 28.0002562,23.8834286 28.0002562,24.0648571 C28.0443892,24.2934286 28.2024138,24.4762857 28.430197,24.592 C29.0010788,24.7762857 29.5975862,24.4548571 30.120064,24.752 C31.079601,25.1634286 32.2213645,25.4377143 33.0641626,26.0805714 C29.0480591,26.402 24.8269507,26.9734286 20.6983793,27.1791429 C19.7146404,27.1105714 18.6440591,27.0662857 17.7542808,27.0405714 C18.4162759,26.2862857 19.5309901,26.0091429 20.2855222,25.2562857 C21.610936,24.7291429 23.0018374,23.9962857 24.256069,23.4248571 C24.3016256,23.2405714 24.3229803,23.082 24.256069,22.9434286 C23.6638325,22.5091429 23.1598621,23.1477143 22.6815172,23.3777143 C22.361197,23.3548571 21.9753892,23.2877143 21.655069,23.4691429 C20.1716305,24.522 18.7323251,25.5991429 16.9769704,26.1948571 C16.8189458,26.172 16.7050542,26.0091429 16.7050542,25.8277143 C17.7542808,24.4991429 19.5096355,23.8834286 20.6727537,22.8048571 C20.8791823,22.3734286 20.8122709,21.7305714 21.3575271,21.5005714 C21.3347488,20.4934286 21.2678374,19.2805714 20.1944089,18.6834286 C19.6007488,17.9734286 18.6184335,17.8362857 17.7542808,17.952 C17.5037192,17.8148571 17.5250739,17.4934286 17.364202,17.3091429 C17.183399,16.9205714 16.8189458,16.9205714 16.4986256,16.9662857 C15.7668719,17.7677143 14.4898621,17.472 13.7609557,18.2962857 C13.5545271,18.752 12.9622906,19.0048571 12.7786404,19.4848571 C12.4127635,20.2405714 12.2988719,21.1805714 12.4127635,22.0034286 C12.4839458,22.782 12.7330837,23.5162857 13.1430936,24.1791429 C13.5103941,24.662 14.0328719,24.9577143 14.5809754,25.072 C15.0593202,25.0948571 15.537665,24.9134286 15.8807635,25.2091429 C15.8807635,26.0348571 15.3355074,26.6977143 15.586069,27.4977143 C15.3568621,27.6134286 15.0151872,27.4977143 14.7646256,27.3834286 C13.2811872,26.4677143 12.2547389,24.9577143 10.9521034,23.9048571 C10.7243202,23.9048571 10.4524039,24.1334286 10.5435172,24.3848571 C11.295202,25.4377143 12.2775172,26.4677143 13.1900739,27.4105714 C13.3267438,27.4977143 13.5545271,27.4548571 13.5986601,27.6377143 C12.5978374,27.7534286 11.6155222,28.2105714 10.6574089,28.4848571 C9.97263547,29.172 9.03587685,29.5134286 8.53475369,30.3862857 C7.96387192,30.752 7.27909852,31.0734286 6.59432512,30.9591429 C6.00208867,29.652 6.61710345,28.2105714 6.57297044,26.8105714 L7.09544828,24.4548571 C6.91464532,23.2405714 7.23496552,22.0505714 7.37163547,20.8577143 C7.39299015,19.4391429 6.7537734,17.2634286 8.51197537,16.5334286 C9.5839803,15.9348571 10.8382118,15.7534286 12.1408473,15.8677143 C14.4898621,15.7534286 16.8189458,15.4562857 19.1665369,15.362 C21.1539458,15.112 23.1157291,14.632 25.1700493,14.7462857 C31.3088079,14.6548571 37.4432956,14.1048571 43.6304581,14.0362857 L43.6304581,14.0362857 Z M43.972133,56.4891429 L44.3365862,56.5105714 C44.4946108,56.6691429 44.814931,56.7634286 44.7935764,57.0362857 C44.7935764,57.4934286 44.3807192,57.862 43.9949113,57.9991429 C40.3432611,58.502 36.6232759,58.982 32.9502709,59.4405714 C30.9884877,59.762 29.1633744,60.4691429 27.1531872,60.6548571 C25.1700493,60.8134286 23.208266,61.1834286 21.2678374,61.5705714 C20.9261626,61.7291429 20.6727537,61.4791429 20.3552808,61.4562857 C19.5793941,61.4562857 18.8020837,61.7777143 18.0034187,61.7562857 C15.6771823,61.7077143 13.3708768,61.9362857 11.0446404,61.9362857 C10.4524039,61.9362857 9.97263547,61.5934286 9.33341872,61.5934286 C8.67,61.7777143 7.8941133,61.9362857 7.1652069,61.822 C5.81843842,61.5705714 4.58556158,61.1134286 3.24164039,60.8834286 C2.89996552,60.6991429 2.48710837,60.5405714 2.30345813,60.152 C2.35043842,59.9234286 2.1454335,59.5548571 2.44297537,59.3948571 C2.9654532,58.9377143 3.69863054,59.052 4.31364532,58.8677143 C6.20851724,58.2291429 8.23578818,58.2291429 10.1762167,57.7005714 C13.9887389,57.1977143 17.7756355,57.3562857 21.5853103,56.922 L22.409601,57.0362857 C23.1157291,56.922 23.7307438,56.5777143 24.4624975,56.6477143 C25.8064187,56.7405714 27.1531872,56.442 28.478601,56.5334286 C30.6453892,56.7177143 32.8363793,56.6477143 35.0259458,56.5777143 C37.4916995,56.1677143 39.8649163,55.8905714 42.3278227,55.7091429 C42.9898177,55.662 43.3329163,56.3962857 43.972133,56.4891429 L43.972133,56.4891429 Z M25.6483941,32.6291429 C23.7777241,33.5434286 21.4714187,33.8434286 20.0136059,35.4905714 C19.3032069,36.3391429 18.5970788,37.1405714 18.1173103,38.0791429 C17.2503103,39.7048571 16.8630788,41.4205714 16.1085468,43.0948571 C15.6999606,44.4677143 15.449399,45.8162857 15.5632906,47.3734286 C15.4024187,50.2134286 17.0695074,52.6634286 17.2503103,55.5477143 C16.2224384,56.0534286 15.0151872,55.5948571 13.9887389,56.0977143 L13.0064236,56.0048571 C11.158532,56.2348571 9.2636601,56.4634286 7.4385468,56.692 C6.36654187,57.0834286 5.20342365,57.312 4.04030542,57.3791429 C4.10721675,57.0134286 4.56278325,56.7405714 4.44889163,56.282 C4.22110837,55.8248571 3.76554187,55.4591429 3.6502266,54.9534286 C3.39966502,53.2134286 2.44297537,51.7691429 1.8720936,50.122 C1.59733005,49.2762857 1.39090148,48.3134286 1.43788177,47.352 C1.48343842,46.0448571 1.8251133,44.8791429 2.05289655,43.6662857 C2.53124138,43.0948571 2.85156158,42.3362857 3.49220197,41.9491429 C4.86174877,40.7791429 6.3893202,39.9334286 8.12189655,39.6334286 C8.92056158,39.382 9.74485222,39.3377143 10.5178916,39.0862857 C11.7507685,39.3377143 13.2569852,38.9034286 14.2165222,39.8634286 C14.5368424,40.232 14.5809754,40.8934286 15.1746355,40.9191429 C15.3796404,40.8934286 15.630202,40.8034286 15.6999606,40.5748571 C15.449399,40.002 15.9505222,39.5191429 15.630202,38.9948571 C15.1290788,38.7877143 14.9012956,38.3305714 14.4443054,38.0091429 C13.2811872,37.6877143 12.0269557,37.4362857 10.7713005,37.4362857 C10.8866158,37.1148571 11.202665,36.8648571 11.4788522,36.6334286 C12.7330837,35.9034286 13.9887389,35.0548571 15.2216158,34.4148571 C16.1085468,34.1162857 17.0695074,33.8862857 17.8895271,33.4305714 C20.3994138,32.9491429 23.0459704,32.742 25.6483941,32.6291429 L25.6483941,32.6291429 Z M29.2075074,37.2762857 C29.3911576,37.6434286 28.8871872,37.8491429 28.9783005,38.172 C28.9341675,40.6891429 28.7732956,43.2762857 28.2493941,45.7491429 C27.2898571,48.1062857 27.4962857,50.6948571 26.5168177,53.0062857 C26.6976207,53.7848571 26.1964975,54.3362857 26.4029261,55.0677143 L26.2634089,55.2034286 C25.1216453,55.0677143 23.9143941,55.412 22.8395419,55.1362857 C23.0018374,54.1062857 23.208266,53.1691429 23.5727192,52.2977143 C23.4801823,51.9762857 23.208266,51.7962857 23.1826404,51.4505714 C23.2737537,50.4434286 23.8446355,49.572 23.7307438,48.4962857 C23.7535222,47.1234286 23.5029606,45.8162857 23.7535222,44.5348571 C23.8005025,43.3448571 23.4801823,42.1777143 23.3221576,41.0777143 C23.3221576,40.9191429 23.1826404,40.8934286 23.1157291,40.8491429 C22.7256502,40.9191429 22.453734,41.192 22.317064,41.5348571 C21.9526108,44.582 22.9320788,47.6734286 22.2473054,50.7162857 C22.2957094,51.2891429 21.7917389,51.7248571 21.9056305,52.3191429 C21.9056305,52.4562857 21.7689606,52.5048571 21.6764236,52.5962857 C21.518399,52.6405714 21.4714187,52.4334286 21.4486404,52.342 C21.2678374,51.312 20.9702956,50.192 21.0400542,49.092 C20.4919507,47.8777143 21.0841872,46.5034286 20.9261626,45.1991429 C21.3347488,43.9634286 21.2678374,42.5662857 21.655069,41.3291429 C21.8828522,40.5748571 22.0195222,39.7962857 22.4309557,39.1091429 C23.5940739,38.422 24.5066305,36.9334286 26.034202,37.2291429 C27.0165172,37.0477143 28.2024138,36.9791429 29.2075074,37.2762857 L29.2075074,37.2762857 Z M32.2213645,34.1391429 C33.8186946,35.332 34.503468,37.3705714 34.6173596,39.3605714 C34.6828473,41.1477143 34.3411724,42.8648571 34.2045025,44.6705714 C33.793069,46.0934286 33.5894877,47.6034286 33.0200296,48.9548571 C32.1957389,51.082 31.4668325,53.3062857 30.0531527,55.1362857 C28.9569458,55.0677143 27.8849409,55.2962857 26.8584926,55.0677143 C28.2024138,51.5648571 28.7063842,47.7634286 29.6630739,44.0548571 C29.7114778,42.0162857 30.4403842,39.9777143 30.1898227,37.9634286 C30.7123005,38.4448571 31.9010443,38.9034286 31.878266,39.9334286 C31.5807241,40.0477143 31.3088079,40.3205714 31.2162709,40.6648571 C31.4226995,44.8334286 29.2986207,48.7477143 28.8644089,52.8691429 C28.6594039,53.442 28.0443892,53.742 27.679936,54.222 C27.6571576,54.4505714 27.8151823,54.5862857 27.9746305,54.6791429 C30.6453892,54.3134286 30.4403842,50.9234286 32.059069,49.2062857 C32.059069,48.2677143 32.9502709,47.6491429 32.9944039,46.6877143 C33.5894877,44.6048571 34.3411724,42.3591429 33.8186946,40.092 C33.5197291,37.6877143 31.4668325,35.5605714 29.0708374,35.332 C27.631532,35.2605714 26.2178522,35.4462857 24.8938621,35.8562857 C23.6866108,36.5205714 22.497867,37.4134286 21.5853103,38.5148571 C20.4221921,40.1391429 20.3780591,42.222 19.6235271,44.0548571 C19.6007488,45.612 19.1893153,47.1234286 19.4868571,48.6334286 C19.965202,49.9634286 19.965202,51.4262857 20.1274975,52.7777143 C21.9753892,54.9077143 20.9930739,56.212 18.6184335,54.9077143 C19.2149409,51.8405714 15.9277438,50.1662857 16.6125172,46.962 C16.6352956,46.4134286 16.4986256,45.8162857 16.6352956,45.2691429 C16.9541921,42.7034286 18.3237389,40.4605714 19.4170985,38.1005714 C20.3780591,36.8191429 21.4956207,35.5134286 22.9790591,34.8948571 C24.2090887,34.2091429 25.5786355,33.9577143 26.8812709,33.4305714 C28.6366256,33.362 30.6453892,33.1562857 32.2213645,34.1391429 L32.2213645,34.1391429 Z M25.9203103,31.1177143 C25.990069,31.2091429 25.8989557,31.3234286 25.785064,31.3462857 C24.8497291,31.3691429 23.8674138,31.7834286 22.8879458,31.5305714 C22.8395419,31.4162857 22.9790591,31.3691429 23.0459704,31.3462857 C23.9813054,31.2091429 24.9408424,30.9105714 25.9203103,31.1177143 L25.9203103,31.1177143 Z M13.8264433,34.072 C12.7117291,35.0091429 11.2724236,35.5605714 10.1320837,36.4762857 C10.0181921,36.4762857 10.0181921,36.2691429 10.0181921,36.1548571 C10.0865271,35.4462857 10.4737586,34.6448571 11.202665,34.4148571 C12.049734,34.2534286 12.892532,33.822 13.8264433,34.072 L13.8264433,34.072 Z M22.3398424,30.5234286 C22.361197,30.5448571 22.361197,30.6148571 22.361197,30.6377143 C20.0136059,31.4162857 17.6617438,32.4691429 15.1518571,32.6977143 C14.0556502,32.8577143 12.9622906,32.8348571 11.913064,33.1991429 C11.3421823,33.3377143 10.7713005,33.4305714 10.3370887,33.8862857 C8.87642857,34.9648571 9.6750936,36.9791429 8.35110345,38.0791429 L7.66633005,38.172 C7.37163547,37.552 7.8941133,36.9791429 7.62219704,36.3391429 C8.07776355,34.8948571 7.73608867,33.452 8.32832512,32.1262857 C8.44221675,31.9191429 8.55610837,31.712 8.71840394,31.5305714 C12.093867,31.2091429 15.5632906,31.232 18.985734,30.9805714 C20.0790936,30.7291429 21.2208571,30.5677143 22.3398424,30.5234286 L22.3398424,30.5234286 Z M34.3895764,30.0177143 C36.5093842,30.1091429 38.6320394,29.9505714 40.7077143,30.0648571 C41.3483547,30.7034286 41.0066798,31.6677143 41.3227291,32.4691429 C41.3013744,33.8862857 42.0075025,35.3091429 41.5063793,36.7491429 C41.4366207,37.0005714 41.4366207,37.392 41.1205714,37.5062857 C40.9582759,37.552 40.7532709,37.6205714 40.5938227,37.5062857 C40.3219064,37.1848571 40.3660394,36.7048571 40.0941232,36.362 C40.4571527,34.9877143 40.8002512,33.4305714 40.2521478,32.0548571 C39.817936,31.4162857 38.9751379,31.7591429 38.4711675,31.2091429 C37.8333744,31.2091429 37.1713793,30.9591429 36.5307389,31.2548571 C34.1831478,31.3462857 32.0818473,30.4534286 29.7997438,30.0648571 C30.7123005,29.9034286 31.7643744,29.7662857 32.676931,29.8577143 L34.3895764,30.0177143 Z M39.4534828,27.4105714 C39.8876946,27.7534286 40.3432611,28.2105714 40.3660394,28.8062857 C36.9208177,29.0562857 33.4286158,28.6434286 29.9392611,28.9434286 C24.986399,29.1262857 20.0577389,29.8362857 15.0593202,30.1091429 C13.3708768,30.272 11.4560739,30.3862857 9.7192266,30.2005714 C9.63096059,30.1091429 9.74485222,30.0877143 9.74485222,30.042 C11.114399,28.7834286 13.1430936,29.3305714 14.7646256,28.712 C19.5566158,28.0705714 24.4368719,28.142 29.2986207,27.5691429 L30.7379261,27.6834286 C33.656399,27.8191429 36.5791429,26.5377143 39.4534828,27.4105714 L39.4534828,27.4105714 Z M44.5430148,25.6662857 C44.2454729,26.3534286 44.6569064,27.1548571 44.3365862,27.8191429 C43.7671281,28.3691429 42.9456847,28.0491429 42.2352857,28.2105714 C42.1000394,28.0977143 42.1911527,27.912 42.213931,27.7748571 C42.6481429,26.6977143 44.016266,26.582 44.5430148,25.6662857 L44.5430148,25.6662857 Z M6.00208867,16.3491429 C6.18289163,18.1805714 6.04622167,20.012 6.25265025,21.8662857 C5.77430542,22.5534286 6.18289163,23.4691429 5.84121675,24.1791429 C5.66041379,23.2877143 5.81843842,22.3248571 5.3842266,21.4091429 C5.08953202,19.6691429 5.54509852,17.9291429 5.84121675,16.212 C5.95510837,16.0977143 6.00208867,16.2791429 6.00208867,16.3491429 L6.00208867,16.3491429 Z M9.83311823,14.7691429 C9.90287685,14.8605714 9.9484335,14.9048571 9.90287685,15.0662857 C8.94618719,15.182 8.19165517,16.0062857 7.18798522,16.2791429 C6.91464532,15.6177143 6.93742365,14.8605714 7.09544828,14.1962857 C7.18798522,13.9448571 7.32323153,13.6934286 7.5296601,13.5091429 C8.35110345,13.7605714 9.19674877,14.1048571 9.83311823,14.7691429 L9.83311823,14.7691429 Z M38.1536946,11.6991429 C39.4976158,12.2977143 41.2088374,12.0905714 42.6040099,12.6405714 C42.6481429,12.7305714 42.7833892,12.7991429 42.6694975,12.892 C35.2765074,13.2805714 27.8151823,13.7377143 20.4221921,14.082 C18.6881921,14.1962857 17.0211034,14.5862857 15.2429704,14.7462857 C13.8748473,14.3791429 12.5280788,15.2248571 11.1798867,14.7462857 C11.1357537,14.4948571 11.1357537,14.2177143 10.9521034,14.0362857 C10.2901084,13.7377143 9.49144335,13.5791429 9.06007882,12.9362857 C10.0181921,12.7077143 10.8866158,13.2805714 11.8646601,13.0505714 C13.1203153,12.9848571 14.3304138,12.6634286 15.6074236,12.7077143 C17.0695074,12.8448571 18.5515222,12.7077143 20.0577389,12.6405714 C24.8269507,12.1348571 29.5975862,12.2491429 34.3411724,11.7477143 C35.6651626,11.6548571 36.8738374,11.6334286 38.1536946,11.6991429 L38.1536946,11.6991429 Z M41.5063793,9.25057143 C41.9192365,9.20628571 42.2352857,9.55057143 42.6481429,9.43628571 C43.9465074,9.40914286 44.7238177,10.602 45.5922414,11.3805714 C46.7325813,13.6934286 46.3909064,16.3262857 46.2072562,18.8462857 C46.1616995,19.0048571 46.1844778,19.1662857 46.0478079,19.2805714 C45.9339163,19.1662857 45.9125616,18.982 45.8641576,18.8234286 C45.8641576,17.882 45.706133,16.9205714 45.6833547,16.0062857 C45.706133,15.0662857 44.907468,14.4948571 44.7238177,13.6005714 C43.8582414,13.0505714 43.972133,11.4705714 42.6481429,11.4948571 C41.8708325,10.9891429 40.9141429,10.9691429 40.0941232,10.6462857 C38.6989507,10.532 37.3294039,10.852 36.0082611,10.6462857 C34.2970394,10.6462857 32.7666207,10.9691429 31.079601,11.0377143 C28.3632857,11.1048571 25.6925271,11.3805714 23.0018374,11.3334286 C18.985734,11.9762857 14.9682069,11.7691429 10.9521034,12.2491429 C10.4965369,12.3634286 10.1534384,12.0905714 9.74485222,12.0905714 C9.69787192,12.0205714 9.69787192,11.9762857 9.74485222,11.9062857 C11.7507685,11.3805714 13.7125517,10.7605714 15.6999606,10.1662857 C17.2503103,10.122 18.7579507,9.93771429 20.2413892,9.68628571 C26.3545222,9.022 32.5630394,10.0062857 38.6989507,9.15771429 C39.6115074,9.36485714 40.5938227,9.18057143 41.5063793,9.25057143 L41.5063793,9.25057143 Z M23.8930394,1.21485714 C27.5660443,1.44342857 31.2390493,0.914857143 34.9590345,1.23628571 C38.128069,1.46485714 41.2785961,1.832 44.3807192,2.47485714 C45.4783498,2.93057143 46.504798,3.50485714 47.5312463,4.00771429 C48.6246059,4.78485714 49.4232709,5.81485714 49.6766798,7.07485714 C50.3842315,8.65485714 50.5650345,10.3505714 50.8625764,12.0205714 C50.9536897,13.2805714 50.9978227,14.4248571 50.976468,15.6848571 C50.9536897,17.9062857 50.2475616,19.9205714 49.9058867,22.0505714 C48.9221478,25.5305714 48.1932414,29.1262857 46.8906059,32.4691429 C46.6186897,33.5434286 46.4350394,34.6677143 46.2286108,35.7662857 C45.79867,36.4762857 45.5922414,37.2548571 45.3160542,38.0091429 C44.4732562,38.4677143 43.6745911,37.802 42.8759261,37.6877143 C42.6481429,36.2477143 43.3329163,34.6891429 42.8759261,33.2477143 C42.7833892,32.2177143 42.4886946,31.2548571 42.350601,30.2234286 C43.3101379,29.7662857 44.3807192,29.3305714 45.1793842,28.8277143 C45.1793842,26.8591429 46.0264532,25.0491429 46.2770148,23.082 C47.2337044,20.4934286 47.3475961,17.4934286 47.3703744,14.702 C47.3475961,13.4648571 47.1895714,12.182 46.4820197,11.2191429 C45.5922414,10.532 45.1580296,9.36485714 44.1301576,8.83771429 C43.2403793,8.67771429 42.4644926,8.17628571 41.4622463,8.312 C34.7312512,8.312 27.9518522,8.70057143 21.2208571,8.63342857 C18.5743005,8.97771429 15.8807635,8.97771429 13.3480985,9.84485714 C12.1408473,10.1662857 10.9521034,10.6462857 9.74485222,10.9691429 C8.3055468,11.5177143 6.069,11.9762857 6.04622167,13.9448571 C6.04622167,14.9048571 5.0197734,15.4562857 5.0197734,16.4405714 C4.81334483,17.5377143 4.63254187,18.6605714 4.61118719,19.7605714 C3.94776847,21.5705714 5.20342365,23.2405714 4.97564039,25.072 C4.79199015,27.2248571 4.63254187,29.3548571 4.74785714,31.5305714 C4.90588177,31.6677143 4.90588177,31.9191429 5.13366502,32.0105714 C5.56787685,31.6462857 5.81843842,32.3548571 6.22987192,32.2848571 C6.55019212,32.1262857 6.98155665,31.8748571 7.30187685,32.102 C7.14242857,33.452 6.86766502,34.8505714 6.70821675,36.1777143 C6.61710345,36.8862857 6.7537734,37.572 6.7537734,38.3305714 C5.15644335,39.4305714 3.35553202,40.232 2.00876355,41.7862857 C1.71122167,41.5348571 1.8251133,41.0077143 1.8251133,40.6648571 C1.91765025,39.4305714 2.32908374,38.2162857 2.37321675,36.9791429 C2.39599507,35.9034286 2.53124138,34.7805714 2.41734975,33.6577143 C2.30345813,32.6505714 2.10130049,31.6677143 1.93900493,30.6591429 C2.21519212,26.8377143 1.8251133,22.9877143 2.10130049,19.1662857 C2.05289655,17.9962857 1.8251133,16.8991429 1.68844335,15.7305714 C1.32399015,13.8734286 1.68844335,11.9062857 1.71122167,10.1662857 C1.66708867,8.44914286 1.64431034,6.57342857 2.5098867,5.12771429 C2.9654532,4.62628571 3.44522167,4.23485714 3.94776847,3.79914286 C4.81334483,3.29771429 5.61200985,2.702 6.63845813,2.61057143 C7.82720197,2.702 8.67,1.67342857 9.85874384,1.65057143 C12.2547389,1.07771429 14.7646256,1.282 17.2503103,1.09914286 C19.4655025,1.192 21.6764236,0.594857143 23.8930394,1.21485714 L23.8930394,1.21485714 Z M42.374803,43.3677143 C42.6481429,43.9177143 42.9200591,44.582 42.6481429,45.2205714 C42.374803,45.8162857 42.0544828,46.3891429 41.5761379,46.8462857 C40.7774729,47.5591429 39.817936,47.9462857 38.745931,47.832 C38.1764729,47.8777143 37.4432956,47.9248571 37.0788424,47.3962857 C36.8510591,47.1448571 36.9435961,46.732 36.8994631,46.4362857 C36.9877291,45.292 37.4916995,44.1691429 38.5181478,43.552 C39.0406256,43.0234286 39.6115074,42.4962857 40.3219064,42.3591429 C40.5938227,42.1534286 41.0066798,42.1077143 41.3227291,42.222 C41.7569409,42.5434286 42.0331281,43.0234286 42.374803,43.3677143 L42.374803,43.3677143 Z M41.3924877,44.5562857 C41.6658276,45.2205714 41.1205714,45.8162857 40.7077143,46.252 C40.0684975,46.6877143 39.0890296,46.6177143 38.4483892,46.2748571 C38.2419606,45.9791429 38.128069,45.5877143 38.2903645,45.1991429 C38.6548177,44.4677143 39.4534828,44.1691429 40.1596108,43.8034286 C40.7532709,43.6191429 41.1205714,44.1462857 41.3924877,44.5562857 L41.3924877,44.5562857 Z M9.28928571,45.6791429 C9.42453202,45.7934286 9.49144335,45.9791429 9.42453202,46.1377143 C9.03587685,46.732 8.37530542,47.4891429 7.57664039,47.3734286 C7.09544828,47.2377143 6.7537734,46.7091429 6.70821675,46.2077143 C6.68686207,45.9791429 6.70821675,45.7934286 6.80075369,45.5877143 C7.12107389,45.2434286 7.50688177,44.9248571 7.96387192,45.0391429 C8.37530542,45.1548571 8.94618719,45.0391429 9.17397044,45.4977143 L9.28928571,45.6791429 Z M10.4524039,44.6962857 C10.5435172,44.7191429 10.6574089,44.7634286 10.6801872,44.8791429 C10.7713005,46.0934286 10.2459754,47.1448571 9.2636601,47.832 C8.71840394,48.1548571 8.26141379,48.8405714 7.57664039,48.862 C7.32323153,48.9548571 7.02853695,49.0205714 6.7537734,48.9777143 C6.57297044,48.9062857 6.43630049,48.7034286 6.25265025,48.6334286 C5.59065517,48.612 5.66041379,47.832 5.3842266,47.4191429 C5.20342365,46.3448571 5.66041379,45.3348571 6.43630049,44.6048571 C6.63845813,43.6877143 7.71331034,43.782 8.35110345,43.3905714 C9.17397044,43.5262857 9.85874384,44.1248571 10.4524039,44.6962857 L10.4524039,44.6962857 Z M35.2095961,19.7391429 C35.2765074,19.8291429 35.3234877,20.012 35.2309507,20.082 C35.1170591,20.2405714 34.9590345,20.1977143 34.8451429,20.1262857 C34.7312512,20.0348571 34.5689557,19.8748571 34.6173596,19.692 C34.6173596,19.5977143 34.6828473,19.5548571 34.7312512,19.4848571 C34.9334089,19.3962857 35.1170591,19.5977143 35.2095961,19.7391429 L35.2095961,19.7391429 Z M33.9994975,19.8062857 C34.0208522,19.9677143 34.0464778,20.082 33.9539409,20.2405714 C33.8400493,20.3562857 33.656399,20.2634286 33.5425074,20.2405714 C33.3617044,20.1491429 33.3147241,19.9205714 33.2919458,19.7391429 C33.3147241,19.6477143 33.3617044,19.5548571 33.4755961,19.5105714 C33.704803,19.5548571 33.9325862,19.5548571 33.9994975,19.8062857 L33.9994975,19.8062857 Z M18.1173103,20.1491429 C18.0731773,20.3105714 18.162867,20.5405714 17.9336601,20.5848571 C17.7058768,20.6291429 17.4780936,20.4477143 17.4111823,20.2634286 C17.4111823,20.082 17.4111823,19.9205714 17.5692069,19.8291429 C17.7756355,19.8534286 18.0034187,19.942 18.1173103,20.1491429 L18.1173103,20.1491429 Z M15.586069,21.0648571 C15.5632906,21.2277143 15.4237734,21.342 15.3098818,21.4091429 C15.1290788,21.4091429 14.9012956,21.4548571 14.7874039,21.2491429 C14.7646256,21.1577143 14.7874039,21.0205714 14.8543153,20.9062857 C15.0593202,20.7691429 15.449399,20.7905714 15.586069,21.0648571 L15.586069,21.0648571 Z M26.2634089,37.8491429 C26.4242808,40.2977143 27.1759655,42.8648571 26.6976207,45.4062857 C26.3103892,48.5191429 25.1914039,51.7462857 25.0561576,54.7448571 C24.9408424,54.7934286 24.7571921,54.8862857 24.6660788,54.7448571 C24.4155172,54.5434286 24.3486059,54.222 24.3927389,53.9705714 C24.4624975,52.9834286 24.5991675,52.1377143 24.5294089,51.1534286 C24.7799704,50.2805714 25.1002906,49.412 25.3280739,48.5634286 C25.0561576,47.0762857 25.6925271,45.7262857 25.7622857,44.2605714 C25.5786355,43.1377143 25.7181527,41.9934286 25.6483941,40.8491429 C25.2355369,40.232 25.6042611,39.382 25.1216453,38.7648571 C25.1002906,38.3077143 25.2355369,37.9634286 25.3750542,37.6205714 C25.5786355,37.5062857 25.853399,37.4577143 26.0826059,37.5062857 L26.2634089,37.8491429 Z M39.0406256,33.2705714 C38.9751379,33.772 39.3395911,34.1391429 39.1801429,34.6677143 C38.3117192,34.0248571 37.4916995,33.1562857 36.5093842,32.5834286 C36.4652512,32.4477143 36.6702562,32.4691429 36.7585222,32.3977143 C37.5586108,32.562 38.6320394,32.3977143 39.0406256,33.2705714 L39.0406256,33.2705714 Z" id="Fill-64"></path>
            </g>
        </g>
    </g>
</svg>